<?xml version="1.0" encoding="UTF-8"?>
<svg xmlns="http://www.w3.org/2000/svg" xmlns:xlink="http://www.w3.org/1999/xlink" width="120px" height="120px" viewBox="0 0 120 120" version="1.1">
<g id="surface1">
<path style=" stroke:none;fill-rule:nonzero;fill:rgb(30.588236%,86.666667%,50.196081%);fill-opacity:1;" d="M 27.191406 15.4375 C 27.339844 15.4375 27.488281 15.4375 27.636719 15.4375 C 27.894531 15.4375 28.15625 15.4375 28.414062 15.4375 C 28.804688 15.4375 29.191406 15.4375 29.582031 15.4375 C 30.246094 15.4375 30.90625 15.4375 31.570312 15.4375 C 32.242188 15.4375 32.914062 15.4375 33.585938 15.4375 C 33.609375 15.4375 33.628906 15.4375 33.652344 15.4375 C 33.84375 15.4375 34.039062 15.4375 34.234375 15.4375 C 34.722656 15.4375 35.210938 15.4375 35.699219 15.4375 C 35.71875 15.4375 35.742188 15.4375 35.765625 15.4375 C 36.867188 15.4375 37.964844 15.4375 39.066406 15.4375 C 39.453125 15.4375 39.839844 15.4375 40.226562 15.4375 C 40.261719 15.4375 40.261719 15.4375 40.300781 15.4375 C 41.417969 15.4375 42.53125 15.4375 43.648438 15.4375 C 43.746094 15.4375 43.84375 15.4375 43.941406 15.4375 C 44.355469 15.4375 44.773438 15.4375 45.191406 15.4375 C 46.285156 15.4375 47.378906 15.4375 48.476562 15.4375 C 48.5 15.4375 48.523438 15.4375 48.550781 15.4375 C 50.164062 15.4375 51.777344 15.4375 53.394531 15.441406 C 53.429688 15.441406 53.429688 15.441406 53.472656 15.441406 C 54.332031 15.441406 55.195312 15.441406 56.058594 15.441406 C 56.847656 15.441406 57.636719 15.441406 58.425781 15.441406 C 58.464844 15.441406 58.464844 15.441406 58.503906 15.441406 C 60.980469 15.441406 63.460938 15.441406 65.9375 15.441406 C 66.066406 15.441406 66.199219 15.441406 66.332031 15.441406 C 66.371094 15.441406 66.371094 15.441406 66.410156 15.441406 C 66.460938 15.441406 66.515625 15.441406 66.566406 15.441406 C 66.617188 15.441406 66.671875 15.441406 66.722656 15.441406 C 67.296875 15.441406 67.871094 15.441406 68.445312 15.441406 C 68.523438 15.441406 68.601562 15.441406 68.679688 15.441406 C 70.269531 15.441406 71.855469 15.441406 73.445312 15.441406 C 73.46875 15.441406 73.492188 15.441406 73.519531 15.441406 C 74.664062 15.441406 75.804688 15.441406 76.949219 15.441406 C 77.074219 15.441406 77.195312 15.441406 77.316406 15.441406 C 77.355469 15.441406 77.355469 15.441406 77.390625 15.441406 C 77.511719 15.441406 77.636719 15.441406 77.757812 15.441406 C 77.804688 15.441406 77.855469 15.441406 77.902344 15.441406 C 77.929688 15.441406 77.953125 15.441406 77.976562 15.441406 C 78.125 15.441406 78.269531 15.441406 78.414062 15.441406 C 79.507812 15.441406 80.597656 15.441406 81.691406 15.441406 C 81.726562 15.441406 81.726562 15.441406 81.765625 15.441406 C 82.03125 15.441406 82.296875 15.441406 82.5625 15.441406 C 82.660156 15.441406 82.757812 15.441406 82.851562 15.441406 C 82.886719 15.441406 82.886719 15.441406 82.925781 15.441406 C 84.023438 15.441406 85.121094 15.441406 86.222656 15.441406 C 86.242188 15.441406 86.265625 15.441406 86.289062 15.441406 C 86.773438 15.441406 87.261719 15.441406 87.75 15.441406 C 87.941406 15.441406 88.136719 15.441406 88.332031 15.441406 C 88.351562 15.441406 88.375 15.441406 88.394531 15.441406 C 89.066406 15.441406 89.738281 15.441406 90.40625 15.441406 C 91.085938 15.441406 91.765625 15.441406 92.445312 15.441406 C 92.832031 15.441406 93.21875 15.441406 93.605469 15.441406 C 93.859375 15.441406 94.117188 15.441406 94.375 15.441406 C 94.519531 15.441406 94.664062 15.441406 94.808594 15.441406 C 95.558594 15.441406 96.296875 15.457031 97.035156 15.574219 C 97.054688 15.578125 97.074219 15.578125 97.097656 15.582031 C 99.53125 15.972656 101.691406 17.160156 103.429688 18.882812 C 103.460938 18.914062 103.492188 18.945312 103.523438 18.976562 C 103.730469 19.183594 103.917969 19.390625 104.101562 19.621094 C 104.128906 19.652344 104.15625 19.6875 104.1875 19.722656 C 104.726562 20.367188 105.179688 21.113281 105.542969 21.871094 C 105.570312 21.929688 105.597656 21.988281 105.628906 22.046875 C 106.105469 23.015625 106.390625 24.070312 106.566406 25.132812 C 106.570312 25.160156 106.578125 25.1875 106.582031 25.214844 C 106.6875 25.898438 106.6875 26.582031 106.6875 27.269531 C 106.6875 27.417969 106.6875 27.5625 106.6875 27.710938 C 106.6875 27.96875 106.6875 28.226562 106.6875 28.484375 C 106.6875 28.871094 106.6875 29.257812 106.6875 29.644531 C 106.6875 30.304688 106.6875 30.964844 106.6875 31.621094 C 106.6875 32.289062 106.6875 32.957031 106.6875 33.625 C 106.6875 33.644531 106.6875 33.667969 106.6875 33.6875 C 106.6875 33.882812 106.6875 34.074219 106.6875 34.269531 C 106.6875 34.753906 106.6875 35.238281 106.6875 35.722656 C 106.6875 35.746094 106.6875 35.765625 106.6875 35.789062 C 106.6875 36.882812 106.6875 37.976562 106.6875 39.070312 C 106.6875 39.105469 106.6875 39.105469 106.6875 39.140625 C 106.6875 39.238281 106.6875 39.332031 106.6875 39.429688 C 106.6875 39.695312 106.6875 39.960938 106.6875 40.222656 C 106.6875 40.246094 106.6875 40.273438 106.6875 40.296875 C 106.6875 41.382812 106.6875 42.464844 106.6875 43.550781 C 106.6875 43.695312 106.6875 43.84375 106.6875 43.988281 C 106.6875 44.011719 106.6875 44.035156 106.6875 44.058594 C 106.6875 44.109375 106.6875 44.15625 106.6875 44.207031 C 106.6875 44.328125 106.6875 44.449219 106.6875 44.570312 C 106.6875 44.59375 106.6875 44.617188 106.6875 44.644531 C 106.6875 44.765625 106.6875 44.886719 106.6875 45.007812 C 106.6875 46.144531 106.691406 47.28125 106.691406 48.417969 C 106.691406 48.445312 106.691406 48.46875 106.691406 48.496094 C 106.691406 50.074219 106.691406 51.652344 106.691406 53.230469 C 106.691406 53.308594 106.691406 53.382812 106.691406 53.460938 C 106.691406 54.03125 106.691406 54.605469 106.691406 55.175781 C 106.691406 55.226562 106.691406 55.28125 106.691406 55.332031 C 106.691406 55.382812 106.691406 55.4375 106.691406 55.488281 C 106.691406 55.515625 106.691406 55.539062 106.691406 55.566406 C 106.691406 55.695312 106.691406 55.828125 106.691406 55.957031 C 106.6875 58.417969 106.6875 60.882812 106.691406 63.34375 C 106.691406 63.371094 106.691406 63.394531 106.691406 63.421875 C 106.691406 64.207031 106.691406 64.988281 106.691406 65.773438 C 106.691406 66.628906 106.691406 67.488281 106.691406 68.34375 C 106.691406 68.371094 106.691406 68.394531 106.691406 68.421875 C 106.691406 70.027344 106.691406 71.628906 106.691406 73.230469 C 106.691406 73.269531 106.691406 73.269531 106.691406 73.308594 C 106.691406 74.394531 106.691406 75.480469 106.691406 76.570312 C 106.691406 76.984375 106.691406 77.398438 106.691406 77.808594 C 106.691406 77.90625 106.691406 78.003906 106.691406 78.101562 C 106.691406 79.210938 106.691406 80.320312 106.691406 81.429688 C 106.691406 81.453125 106.691406 81.476562 106.691406 81.5 C 106.691406 81.882812 106.691406 82.269531 106.691406 82.652344 C 106.691406 83.746094 106.691406 84.835938 106.691406 85.929688 C 106.691406 85.953125 106.691406 85.972656 106.691406 85.996094 C 106.691406 86.480469 106.691406 86.964844 106.691406 87.449219 C 106.691406 87.640625 106.691406 87.835938 106.691406 88.027344 C 106.691406 88.046875 106.691406 88.070312 106.691406 88.089844 C 106.691406 88.757812 106.691406 89.425781 106.691406 90.089844 C 106.691406 90.765625 106.691406 91.441406 106.691406 92.117188 C 106.691406 92.5 106.691406 92.882812 106.691406 93.269531 C 106.691406 93.523438 106.691406 93.777344 106.691406 94.035156 C 106.691406 94.179688 106.691406 94.320312 106.691406 94.464844 C 106.699219 97.078125 106.003906 99.660156 104.355469 101.730469 C 104.3125 101.789062 104.269531 101.84375 104.226562 101.902344 C 104.050781 102.132812 103.859375 102.34375 103.660156 102.554688 C 103.597656 102.621094 103.539062 102.691406 103.476562 102.761719 C 103.316406 102.941406 103.148438 103.105469 102.964844 103.265625 C 102.921875 103.300781 102.878906 103.339844 102.835938 103.378906 C 102.601562 103.597656 102.347656 103.789062 102.089844 103.980469 C 102.066406 103.996094 102.046875 104.011719 102.023438 104.03125 C 101.679688 104.289062 101.324219 104.515625 100.949219 104.730469 C 100.90625 104.753906 100.90625 104.753906 100.867188 104.777344 C 99.546875 105.527344 98.101562 105.984375 96.601562 106.171875 C 96.578125 106.171875 96.558594 106.175781 96.539062 106.179688 C 95.976562 106.246094 95.417969 106.238281 94.855469 106.238281 C 94.707031 106.238281 94.558594 106.238281 94.410156 106.238281 C 94.148438 106.238281 93.886719 106.238281 93.628906 106.238281 C 93.238281 106.238281 92.847656 106.238281 92.457031 106.238281 C 91.792969 106.238281 91.125 106.238281 90.460938 106.238281 C 89.785156 106.238281 89.113281 106.238281 88.4375 106.238281 C 88.40625 106.238281 88.40625 106.238281 88.375 106.238281 C 88.179688 106.238281 87.984375 106.238281 87.789062 106.238281 C 87.300781 106.238281 86.8125 106.238281 86.320312 106.238281 C 86.300781 106.238281 86.277344 106.238281 86.253906 106.238281 C 85.148438 106.238281 84.046875 106.238281 82.941406 106.238281 C 82.917969 106.238281 82.894531 106.238281 82.871094 106.238281 C 82.773438 106.238281 82.675781 106.238281 82.578125 106.238281 C 82.3125 106.238281 82.042969 106.238281 81.777344 106.238281 C 81.753906 106.238281 81.726562 106.238281 81.703125 106.238281 C 80.609375 106.238281 79.511719 106.238281 78.417969 106.238281 C 78.269531 106.238281 78.125 106.238281 77.976562 106.238281 C 77.941406 106.238281 77.941406 106.238281 77.902344 106.238281 C 77.855469 106.238281 77.804688 106.238281 77.757812 106.238281 C 77.632812 106.238281 77.511719 106.238281 77.390625 106.238281 C 77.351562 106.238281 77.351562 106.238281 77.316406 106.238281 C 77.191406 106.238281 77.070312 106.238281 76.945312 106.238281 C 75.796875 106.238281 74.652344 106.238281 73.503906 106.238281 C 73.476562 106.238281 73.453125 106.238281 73.425781 106.238281 C 71.835938 106.238281 70.242188 106.238281 68.648438 106.238281 C 68.570312 106.238281 68.492188 106.238281 68.414062 106.238281 C 67.835938 106.238281 67.257812 106.238281 66.683594 106.238281 C 66.628906 106.238281 66.578125 106.238281 66.523438 106.238281 C 66.472656 106.238281 66.417969 106.238281 66.367188 106.238281 C 66.328125 106.238281 66.328125 106.238281 66.289062 106.238281 C 66.15625 106.238281 66.023438 106.238281 65.894531 106.238281 C 63.40625 106.238281 60.921875 106.238281 58.4375 106.238281 C 58.410156 106.238281 58.382812 106.238281 58.355469 106.238281 C 57.566406 106.238281 56.773438 106.238281 55.984375 106.238281 C 55.117188 106.238281 54.253906 106.242188 53.386719 106.242188 C 53.359375 106.242188 53.335938 106.242188 53.308594 106.242188 C 51.691406 106.242188 50.070312 106.242188 48.453125 106.242188 C 48.429688 106.242188 48.402344 106.242188 48.378906 106.242188 C 47.28125 106.242188 46.183594 106.242188 45.082031 106.242188 C 44.667969 106.242188 44.25 106.242188 43.832031 106.242188 C 43.734375 106.242188 43.636719 106.242188 43.539062 106.242188 C 42.417969 106.242188 41.300781 106.242188 40.179688 106.242188 C 40.15625 106.242188 40.132812 106.242188 40.105469 106.242188 C 39.71875 106.242188 39.332031 106.242188 38.941406 106.242188 C 37.839844 106.242188 36.738281 106.242188 35.636719 106.242188 C 35.613281 106.242188 35.589844 106.242188 35.566406 106.242188 C 35.078125 106.242188 34.589844 106.242188 34.101562 106.242188 C 33.90625 106.242188 33.710938 106.242188 33.515625 106.242188 C 33.484375 106.242188 33.484375 106.242188 33.453125 106.242188 C 32.78125 106.242188 32.105469 106.242188 31.433594 106.242188 C 30.75 106.242188 30.070312 106.242188 29.386719 106.242188 C 29 106.242188 28.613281 106.242188 28.226562 106.242188 C 27.96875 106.242188 27.710938 106.242188 27.453125 106.242188 C 27.308594 106.242188 27.160156 106.242188 27.015625 106.242188 C 25.183594 106.246094 23.414062 105.941406 21.75 105.148438 C 21.722656 105.136719 21.691406 105.125 21.664062 105.109375 C 20.734375 104.667969 19.882812 104.089844 19.109375 103.410156 C 19.089844 103.390625 19.066406 103.371094 19.042969 103.351562 C 18.859375 103.1875 18.683594 103.015625 18.507812 102.84375 C 18.464844 102.800781 18.417969 102.753906 18.375 102.710938 C 18.1875 102.523438 18.015625 102.328125 17.851562 102.121094 C 17.824219 102.089844 17.796875 102.058594 17.773438 102.027344 C 16.917969 101.03125 16.265625 99.820312 15.839844 98.578125 C 15.828125 98.550781 15.820312 98.519531 15.808594 98.488281 C 15.59375 97.859375 15.441406 97.226562 15.335938 96.570312 C 15.332031 96.535156 15.324219 96.496094 15.320312 96.460938 C 15.207031 95.71875 15.203125 94.972656 15.203125 94.222656 C 15.203125 94.078125 15.203125 93.929688 15.203125 93.785156 C 15.203125 93.527344 15.203125 93.269531 15.203125 93.015625 C 15.203125 92.628906 15.203125 92.246094 15.203125 91.859375 C 15.203125 91.203125 15.203125 90.550781 15.203125 89.894531 C 15.203125 89.230469 15.203125 88.566406 15.203125 87.902344 C 15.203125 87.878906 15.203125 87.859375 15.203125 87.835938 C 15.203125 87.644531 15.203125 87.453125 15.203125 87.261719 C 15.203125 86.777344 15.203125 86.296875 15.203125 85.8125 C 15.203125 85.792969 15.203125 85.769531 15.203125 85.746094 C 15.203125 84.660156 15.203125 83.570312 15.203125 82.484375 C 15.203125 82.4375 15.203125 82.390625 15.203125 82.339844 C 15.203125 82.316406 15.203125 82.292969 15.203125 82.269531 C 15.203125 81.957031 15.203125 81.648438 15.203125 81.335938 C 15.203125 81.3125 15.203125 81.289062 15.203125 81.261719 C 15.203125 80.160156 15.203125 79.054688 15.203125 77.953125 C 15.203125 77.832031 15.203125 77.710938 15.203125 77.59375 C 15.203125 77.230469 15.203125 76.867188 15.203125 76.503906 C 15.203125 75.394531 15.203125 74.289062 15.203125 73.183594 C 15.203125 73.15625 15.203125 73.132812 15.203125 73.109375 C 15.203125 71.511719 15.203125 69.917969 15.203125 68.320312 C 15.203125 68.292969 15.203125 68.269531 15.203125 68.242188 C 15.203125 67.390625 15.203125 66.535156 15.203125 65.683594 C 15.203125 63.105469 15.203125 60.523438 15.203125 55.917969 C 15.203125 55.066406 15.203125 54.210938 15.203125 53.359375 C 15.203125 53.335938 15.203125 53.308594 15.203125 53.28125 C 15.203125 51.6875 15.203125 50.09375 15.203125 48.496094 C 15.203125 48.472656 15.203125 48.449219 15.203125 48.421875 C 15.203125 47.316406 15.203125 46.210938 15.203125 45.105469 C 15.203125 44.742188 15.203125 44.378906 15.203125 44.015625 C 15.203125 43.894531 15.203125 43.773438 15.203125 43.65625 C 15.203125 42.550781 15.203125 41.449219 15.203125 40.34375 C 15.203125 40.320312 15.203125 40.296875 15.203125 40.273438 C 15.203125 39.960938 15.203125 39.648438 15.203125 39.339844 C 15.203125 39.316406 15.203125 39.292969 15.203125 39.265625 C 15.203125 39.21875 15.203125 39.171875 15.203125 39.125 C 15.203125 38.039062 15.203125 36.953125 15.203125 35.867188 C 15.203125 35.832031 15.203125 35.832031 15.203125 35.800781 C 15.203125 35.316406 15.203125 34.835938 15.203125 34.355469 C 15.203125 34.164062 15.203125 33.972656 15.203125 33.777344 C 15.203125 33.757812 15.203125 33.738281 15.203125 33.714844 C 15.203125 33.050781 15.203125 32.390625 15.203125 31.726562 C 15.203125 31.054688 15.203125 30.382812 15.203125 29.710938 C 15.203125 29.328125 15.203125 28.949219 15.203125 28.566406 C 15.203125 28.3125 15.203125 28.058594 15.203125 27.804688 C 15.203125 27.660156 15.203125 27.515625 15.203125 27.375 C 15.199219 26.613281 15.214844 25.859375 15.335938 25.109375 C 15.339844 25.089844 15.34375 25.070312 15.347656 25.046875 C 15.410156 24.652344 15.496094 24.265625 15.601562 23.878906 C 15.605469 23.855469 15.613281 23.828125 15.621094 23.800781 C 16.058594 22.222656 16.832031 20.785156 17.878906 19.53125 C 17.902344 19.5 17.925781 19.472656 17.953125 19.441406 C 18.15625 19.195312 18.375 18.96875 18.601562 18.742188 C 18.617188 18.726562 18.632812 18.710938 18.648438 18.695312 C 18.851562 18.488281 19.0625 18.300781 19.289062 18.121094 C 19.324219 18.089844 19.355469 18.0625 19.390625 18.035156 C 19.644531 17.8125 19.910156 17.617188 20.191406 17.429688 C 20.210938 17.417969 20.230469 17.402344 20.253906 17.386719 C 22.34375 15.984375 24.699219 15.433594 27.191406 15.4375 Z M 27.191406 15.4375 "/>
<path style=" stroke:none;fill-rule:nonzero;fill:rgb(99.607843%,99.607843%,99.607843%);fill-opacity:1;" d="M 60.851562 24.683594 C 60.929688 24.71875 61.003906 24.761719 61.078125 24.804688 C 61.121094 24.828125 61.121094 24.828125 61.164062 24.855469 C 61.195312 24.871094 61.226562 24.890625 61.257812 24.910156 C 61.503906 25.054688 61.757812 25.199219 62.007812 25.34375 C 62.226562 25.464844 62.445312 25.589844 62.660156 25.71875 C 62.824219 25.816406 62.988281 25.910156 63.152344 26.003906 C 63.378906 26.132812 63.605469 26.261719 63.832031 26.394531 C 64.179688 26.597656 64.53125 26.800781 64.882812 27.003906 C 64.980469 27.058594 65.082031 27.117188 65.179688 27.175781 C 65.480469 27.347656 65.777344 27.519531 66.078125 27.691406 C 66.332031 27.835938 66.582031 27.980469 66.832031 28.128906 C 67.152344 28.3125 67.46875 28.5 67.789062 28.683594 C 67.890625 28.742188 67.992188 28.796875 68.089844 28.855469 C 68.390625 29.027344 68.6875 29.199219 68.988281 29.371094 C 69.242188 29.515625 69.492188 29.660156 69.742188 29.808594 C 70.0625 29.992188 70.382812 30.179688 70.703125 30.363281 C 70.863281 30.457031 71.027344 30.550781 71.191406 30.644531 C 71.253906 30.683594 71.320312 30.71875 71.382812 30.757812 C 71.515625 30.832031 71.648438 30.910156 71.78125 30.984375 C 72.078125 31.160156 72.378906 31.332031 72.679688 31.5 C 72.929688 31.644531 73.179688 31.792969 73.429688 31.9375 C 73.75 32.125 74.070312 32.308594 74.390625 32.492188 C 74.492188 32.550781 74.589844 32.609375 74.691406 32.664062 C 74.988281 32.839844 75.289062 33.011719 75.589844 33.183594 C 75.839844 33.324219 76.089844 33.46875 76.339844 33.617188 C 76.574219 33.753906 76.808594 33.886719 77.042969 34.023438 C 77.074219 34.042969 77.105469 34.0625 77.140625 34.082031 C 77.296875 34.171875 77.453125 34.261719 77.609375 34.351562 C 77.609375 36.695312 77.609375 39.042969 77.609375 41.460938 C 77.273438 41.292969 77.273438 41.292969 77.152344 41.21875 C 77.125 41.203125 77.09375 41.1875 77.066406 41.171875 C 77.023438 41.144531 77.023438 41.144531 76.980469 41.117188 C 76.917969 41.082031 76.851562 41.042969 76.789062 41.007812 C 76.753906 40.988281 76.722656 40.96875 76.6875 40.949219 C 76.527344 40.855469 76.367188 40.761719 76.203125 40.667969 C 76.171875 40.648438 76.140625 40.628906 76.105469 40.609375 C 76.039062 40.574219 75.972656 40.535156 75.910156 40.496094 C 75.746094 40.402344 75.582031 40.308594 75.421875 40.214844 C 75.355469 40.175781 75.289062 40.140625 75.226562 40.101562 C 73.015625 38.828125 70.804688 37.550781 68.59375 36.277344 C 68.5625 36.257812 68.53125 36.242188 68.496094 36.222656 C 68.433594 36.183594 68.367188 36.144531 68.300781 36.109375 C 68.140625 36.015625 67.976562 35.921875 67.8125 35.828125 C 67.5 35.644531 67.1875 35.464844 66.875 35.28125 C 66.59375 35.121094 66.316406 34.957031 66.035156 34.800781 C 65.765625 34.644531 65.492188 34.488281 65.222656 34.328125 C 64.992188 34.195312 64.761719 34.0625 64.53125 33.929688 C 64.238281 33.765625 63.949219 33.597656 63.65625 33.425781 C 63.34375 33.242188 63.023438 33.058594 62.707031 32.875 C 62.546875 32.78125 62.382812 32.6875 62.21875 32.59375 C 62.15625 32.558594 62.089844 32.519531 62.027344 32.484375 C 61.90625 32.414062 61.789062 32.347656 61.667969 32.277344 C 61.617188 32.246094 61.5625 32.214844 61.507812 32.183594 C 61.441406 32.144531 61.375 32.105469 61.304688 32.066406 C 61.246094 32.035156 61.1875 32 61.128906 31.964844 C 61.078125 31.9375 61.03125 31.910156 60.988281 31.878906 C 60.886719 31.816406 60.886719 31.816406 60.769531 31.804688 C 60.675781 31.835938 60.601562 31.875 60.515625 31.925781 C 60.46875 31.957031 60.46875 31.957031 60.417969 31.988281 C 60.398438 32 60.382812 32.007812 60.363281 32.019531 C 60.273438 32.074219 60.179688 32.128906 60.089844 32.183594 C 60.070312 32.195312 60.050781 32.207031 60.035156 32.21875 C 59.886719 32.304688 59.742188 32.390625 59.589844 32.472656 C 59.402344 32.574219 59.214844 32.683594 59.027344 32.792969 C 58.863281 32.890625 58.699219 32.984375 58.53125 33.082031 C 58.160156 33.292969 57.789062 33.507812 57.421875 33.71875 C 57.394531 33.734375 57.367188 33.75 57.339844 33.765625 C 57.089844 33.910156 56.835938 34.058594 56.585938 34.203125 C 56.304688 34.367188 56.023438 34.53125 55.738281 34.695312 C 55.539062 34.808594 55.339844 34.921875 55.140625 35.039062 C 54.890625 35.1875 54.640625 35.332031 54.386719 35.472656 C 54.1875 35.585938 53.992188 35.703125 53.792969 35.816406 C 53.523438 35.976562 53.253906 36.128906 52.984375 36.28125 C 52.800781 36.386719 52.617188 36.492188 52.433594 36.597656 C 52.226562 36.722656 52.019531 36.839844 51.808594 36.960938 C 51.558594 37.101562 51.308594 37.246094 51.0625 37.394531 C 50.902344 37.488281 50.738281 37.582031 50.578125 37.671875 C 50.351562 37.800781 50.128906 37.929688 49.902344 38.0625 C 49.636719 38.21875 49.367188 38.371094 49.101562 38.527344 C 48.714844 38.746094 48.332031 38.96875 47.949219 39.191406 C 47.636719 39.375 47.324219 39.554688 47.007812 39.734375 C 46.808594 39.847656 46.609375 39.964844 46.410156 40.078125 C 46.160156 40.226562 45.910156 40.371094 45.65625 40.515625 C 45.460938 40.628906 45.261719 40.742188 45.0625 40.859375 C 44.796875 41.015625 44.523438 41.167969 44.253906 41.320312 C 44.070312 41.425781 43.886719 41.53125 43.707031 41.640625 C 43.5 41.761719 43.289062 41.882812 43.078125 42 C 42.828125 42.140625 42.582031 42.285156 42.332031 42.433594 C 42.171875 42.527344 42.011719 42.621094 41.847656 42.710938 C 41.621094 42.839844 41.398438 42.972656 41.171875 43.101562 C 40.90625 43.257812 40.640625 43.414062 40.371094 43.566406 C 39.984375 43.785156 39.601562 44.007812 39.21875 44.230469 C 38.90625 44.414062 38.59375 44.59375 38.277344 44.773438 C 38.078125 44.886719 37.878906 45.003906 37.679688 45.121094 C 37.429688 45.265625 37.179688 45.410156 36.929688 45.554688 C 36.691406 45.6875 36.453125 45.828125 36.21875 45.964844 C 36.085938 46.042969 35.953125 46.121094 35.816406 46.199219 C 35.796875 46.210938 35.773438 46.222656 35.753906 46.234375 C 35.699219 46.261719 35.699219 46.261719 35.640625 46.261719 C 35.648438 55.851562 35.660156 65.445312 35.671875 75.328125 C 35.980469 75.507812 35.980469 75.507812 36.300781 75.691406 C 36.421875 75.761719 36.539062 75.828125 36.660156 75.898438 C 36.910156 76.046875 37.160156 76.191406 37.414062 76.332031 C 37.609375 76.445312 37.808594 76.5625 38.007812 76.679688 C 38.273438 76.835938 38.542969 76.988281 38.816406 77.140625 C 39.003906 77.25 39.191406 77.355469 39.378906 77.46875 C 39.542969 77.566406 39.707031 77.660156 39.871094 77.753906 C 40.097656 77.882812 40.324219 78.011719 40.550781 78.144531 C 40.898438 78.347656 41.25 78.550781 41.601562 78.753906 C 41.699219 78.808594 41.800781 78.867188 41.902344 78.925781 C 42.199219 79.097656 42.5 79.269531 42.796875 79.441406 C 43.050781 79.585938 43.300781 79.730469 43.550781 79.878906 C 43.871094 80.0625 44.191406 80.25 44.511719 80.433594 C 44.609375 80.492188 44.710938 80.546875 44.808594 80.605469 C 45.109375 80.777344 45.410156 80.949219 45.707031 81.121094 C 45.960938 81.265625 46.210938 81.410156 46.460938 81.558594 C 46.78125 81.742188 47.101562 81.929688 47.421875 82.113281 C 47.585938 82.207031 47.746094 82.300781 47.910156 82.394531 C 47.976562 82.433594 48.039062 82.46875 48.105469 82.507812 C 49.015625 83.03125 49.925781 83.558594 50.835938 84.082031 C 50.867188 84.101562 50.898438 84.121094 50.933594 84.140625 C 50.996094 84.175781 51.0625 84.214844 51.128906 84.25 C 51.289062 84.34375 51.453125 84.441406 51.617188 84.535156 C 51.929688 84.714844 52.242188 84.894531 52.554688 85.078125 C 52.816406 85.230469 53.078125 85.378906 53.339844 85.53125 C 53.632812 85.695312 53.921875 85.863281 54.210938 86.035156 C 54.527344 86.21875 54.84375 86.402344 55.160156 86.582031 C 55.324219 86.675781 55.488281 86.769531 55.648438 86.863281 C 55.714844 86.902344 55.78125 86.941406 55.84375 86.976562 C 59.355469 89.003906 59.355469 89.003906 59.453125 89.058594 C 59.515625 89.097656 59.582031 89.132812 59.644531 89.171875 C 59.796875 89.257812 59.949219 89.347656 60.101562 89.433594 C 60.175781 89.476562 60.246094 89.519531 60.320312 89.5625 C 60.371094 89.589844 60.421875 89.621094 60.472656 89.648438 C 60.519531 89.675781 60.519531 89.675781 60.566406 89.703125 C 60.59375 89.71875 60.621094 89.734375 60.648438 89.753906 C 60.738281 89.800781 60.738281 89.800781 60.839844 89.820312 C 60.910156 89.792969 60.910156 89.792969 60.980469 89.746094 C 61.023438 89.722656 61.023438 89.722656 61.066406 89.695312 C 61.097656 89.675781 61.128906 89.660156 61.160156 89.640625 C 61.222656 89.601562 61.289062 89.5625 61.355469 89.523438 C 61.390625 89.503906 61.421875 89.480469 61.457031 89.460938 C 61.621094 89.363281 61.78125 89.269531 61.945312 89.175781 C 62.011719 89.140625 62.078125 89.101562 62.144531 89.0625 C 62.175781 89.042969 62.207031 89.027344 62.242188 89.007812 C 62.40625 88.914062 62.566406 88.820312 62.730469 88.726562 C 62.792969 88.6875 62.859375 88.648438 62.925781 88.613281 C 63.054688 88.535156 63.1875 88.460938 63.320312 88.382812 C 63.621094 88.210938 63.917969 88.039062 64.21875 87.867188 C 64.46875 87.722656 64.722656 87.578125 64.972656 87.433594 C 65.289062 87.246094 65.609375 87.0625 65.929688 86.878906 C 66.03125 86.820312 66.128906 86.761719 66.230469 86.703125 C 66.53125 86.53125 66.828125 86.359375 67.128906 86.1875 C 67.378906 86.042969 67.632812 85.898438 67.882812 85.753906 C 68.199219 85.566406 68.519531 85.382812 68.839844 85.195312 C 68.941406 85.140625 69.039062 85.082031 69.140625 85.023438 C 69.441406 84.851562 69.738281 84.679688 70.039062 84.507812 C 70.289062 84.363281 70.539062 84.21875 70.792969 84.074219 C 71.25 83.804688 71.707031 83.539062 72.167969 83.277344 C 72.421875 83.132812 72.671875 82.988281 72.921875 82.84375 C 73.242188 82.65625 73.5625 82.472656 73.882812 82.289062 C 73.980469 82.230469 74.082031 82.171875 74.179688 82.113281 C 74.480469 81.941406 74.777344 81.769531 75.078125 81.597656 C 75.332031 81.453125 75.582031 81.308594 75.832031 81.164062 C 76.152344 80.976562 76.46875 80.792969 76.789062 80.605469 C 76.890625 80.550781 76.992188 80.492188 77.089844 80.433594 C 77.390625 80.261719 77.6875 80.089844 77.988281 79.917969 C 78.242188 79.773438 78.492188 79.628906 78.742188 79.484375 C 79.058594 79.296875 79.378906 79.113281 79.699219 78.925781 C 79.800781 78.871094 79.902344 78.8125 80 78.753906 C 80.300781 78.582031 80.597656 78.410156 80.898438 78.238281 C 81.152344 78.09375 81.402344 77.949219 81.652344 77.800781 C 81.96875 77.617188 82.289062 77.429688 82.609375 77.246094 C 82.710938 77.191406 82.8125 77.132812 82.910156 77.074219 C 83.210938 76.902344 83.507812 76.730469 83.808594 76.558594 C 84.058594 76.414062 84.308594 76.269531 84.558594 76.125 C 84.722656 76.027344 84.886719 75.933594 85.046875 75.839844 C 85.066406 75.828125 85.082031 75.820312 85.101562 75.808594 C 85.183594 75.761719 85.269531 75.710938 85.351562 75.664062 C 85.382812 75.648438 85.414062 75.628906 85.445312 75.609375 C 85.472656 75.597656 85.5 75.582031 85.527344 75.566406 C 85.558594 75.546875 85.589844 75.527344 85.621094 75.511719 C 85.644531 75.5 85.667969 75.492188 85.695312 75.484375 C 85.789062 75.441406 85.847656 75.40625 85.921875 75.328125 C 85.964844 75.15625 85.957031 74.984375 85.953125 74.808594 C 85.953125 74.753906 85.953125 74.699219 85.953125 74.648438 C 85.953125 74.5 85.953125 74.355469 85.949219 74.210938 C 85.949219 74.058594 85.949219 73.902344 85.949219 73.75 C 85.945312 73.460938 85.945312 73.175781 85.941406 72.886719 C 85.9375 72.554688 85.9375 72.226562 85.933594 71.898438 C 85.933594 71.222656 85.925781 70.546875 85.921875 69.871094 C 85.902344 69.859375 85.882812 69.847656 85.859375 69.835938 C 85.773438 69.785156 85.683594 69.734375 85.59375 69.683594 C 85.5625 69.667969 85.53125 69.652344 85.5 69.632812 C 85.160156 69.441406 84.824219 69.246094 84.488281 69.046875 C 84.425781 69.011719 84.363281 68.976562 84.304688 68.941406 C 84.257812 68.914062 84.257812 68.914062 84.210938 68.886719 C 83.992188 68.757812 83.769531 68.632812 83.546875 68.507812 C 83.316406 68.375 83.085938 68.242188 82.859375 68.105469 C 82.640625 67.976562 82.417969 67.851562 82.199219 67.726562 C 82 67.613281 81.800781 67.496094 81.605469 67.382812 C 81.335938 67.226562 81.066406 67.070312 80.792969 66.917969 C 80.605469 66.8125 80.417969 66.703125 80.230469 66.59375 C 80.0625 66.492188 79.898438 66.398438 79.730469 66.300781 C 79.316406 66.066406 78.902344 65.828125 78.492188 65.585938 C 77.980469 65.285156 77.460938 64.988281 76.945312 64.695312 C 76.714844 64.5625 76.488281 64.429688 76.257812 64.296875 C 76.0625 64.183594 75.871094 64.070312 75.675781 63.960938 C 75.417969 63.8125 75.164062 63.664062 74.910156 63.515625 C 74.6875 63.386719 74.46875 63.261719 74.246094 63.136719 C 74.050781 63.023438 73.851562 62.90625 73.652344 62.792969 C 73.386719 62.636719 73.117188 62.480469 72.84375 62.328125 C 72.65625 62.222656 72.46875 62.113281 72.28125 62.003906 C 72.113281 61.902344 71.945312 61.808594 71.777344 61.710938 C 71.582031 61.597656 71.382812 61.484375 71.183594 61.371094 C 70.960938 61.242188 70.738281 61.113281 70.511719 60.984375 C 70.480469 60.964844 70.445312 60.945312 70.414062 60.925781 C 70.347656 60.886719 70.277344 60.847656 70.210938 60.808594 C 70.046875 60.714844 69.882812 60.621094 69.71875 60.523438 C 69.65625 60.488281 69.589844 60.449219 69.523438 60.414062 C 69.136719 60.1875 68.746094 59.960938 68.355469 59.738281 C 68.324219 59.71875 68.289062 59.699219 68.257812 59.679688 C 68.191406 59.644531 68.128906 59.605469 68.0625 59.570312 C 67.898438 59.476562 67.734375 59.378906 67.574219 59.285156 C 67.257812 59.105469 66.945312 58.925781 66.632812 58.742188 C 66.375 58.589844 66.113281 58.4375 65.851562 58.289062 C 65.558594 58.125 65.269531 57.957031 64.976562 57.785156 C 64.664062 57.601562 64.34375 57.417969 64.027344 57.238281 C 63.867188 57.144531 63.703125 57.050781 63.539062 56.953125 C 63.476562 56.917969 63.410156 56.878906 63.34375 56.84375 C 62.953125 56.617188 62.566406 56.390625 62.175781 56.167969 C 62.144531 56.148438 62.109375 56.128906 62.078125 56.109375 C 62.011719 56.074219 61.949219 56.035156 61.882812 56 C 61.730469 55.910156 61.578125 55.824219 61.425781 55.734375 C 61.351562 55.691406 61.277344 55.652344 61.207031 55.609375 C 61.152344 55.578125 61.101562 55.550781 61.050781 55.519531 C 61.019531 55.5 60.988281 55.484375 60.957031 55.464844 C 60.929688 55.449219 60.902344 55.433594 60.871094 55.417969 C 60.808594 55.378906 60.808594 55.378906 60.78125 55.351562 C 60.777344 55.257812 60.777344 55.167969 60.777344 55.078125 C 60.777344 55.046875 60.777344 55.019531 60.777344 54.988281 C 60.777344 54.890625 60.777344 54.792969 60.777344 54.695312 C 60.777344 54.625 60.777344 54.558594 60.777344 54.488281 C 60.777344 54.296875 60.777344 54.105469 60.777344 53.917969 C 60.777344 53.738281 60.777344 53.5625 60.777344 53.382812 C 60.777344 53.027344 60.777344 52.675781 60.777344 52.324219 C 60.777344 51.980469 60.777344 51.636719 60.777344 51.292969 C 60.777344 51.273438 60.777344 51.25 60.777344 51.230469 C 60.777344 51.125 60.777344 51.015625 60.777344 50.910156 C 60.777344 50.03125 60.78125 49.148438 60.78125 48.269531 C 60.875 48.308594 60.96875 48.347656 61.058594 48.398438 C 61.09375 48.417969 61.09375 48.417969 61.128906 48.4375 C 61.15625 48.453125 61.179688 48.464844 61.207031 48.480469 C 61.246094 48.503906 61.246094 48.503906 61.289062 48.523438 C 61.476562 48.628906 61.660156 48.734375 61.84375 48.84375 C 62.011719 48.941406 62.175781 49.039062 62.34375 49.132812 C 62.570312 49.261719 62.800781 49.394531 63.03125 49.53125 C 63.253906 49.660156 63.480469 49.792969 63.703125 49.921875 C 63.925781 50.046875 64.148438 50.175781 64.371094 50.304688 C 64.71875 50.507812 65.070312 50.710938 65.421875 50.914062 C 65.519531 50.96875 65.621094 51.027344 65.71875 51.085938 C 66.019531 51.257812 66.320312 51.429688 66.617188 51.601562 C 66.871094 51.746094 67.121094 51.890625 67.371094 52.039062 C 67.828125 52.304688 68.289062 52.570312 68.75 52.832031 C 69 52.976562 69.25 53.121094 69.5 53.265625 C 69.820312 53.453125 70.140625 53.636719 70.460938 53.824219 C 70.5625 53.878906 70.660156 53.9375 70.761719 53.996094 C 71.058594 54.167969 71.359375 54.339844 71.660156 54.511719 C 71.910156 54.65625 72.160156 54.800781 72.410156 54.949219 C 72.730469 55.132812 73.050781 55.320312 73.371094 55.503906 C 73.472656 55.558594 73.570312 55.617188 73.671875 55.675781 C 73.96875 55.847656 74.269531 56.019531 74.570312 56.191406 C 74.820312 56.335938 75.070312 56.480469 75.320312 56.628906 C 75.640625 56.8125 75.960938 57 76.28125 57.183594 C 76.445312 57.277344 76.605469 57.371094 76.769531 57.464844 C 76.835938 57.503906 76.898438 57.539062 76.964844 57.578125 C 77.613281 57.953125 78.265625 58.328125 78.914062 58.703125 C 78.945312 58.722656 78.980469 58.738281 79.011719 58.757812 C 79.078125 58.796875 79.140625 58.832031 79.207031 58.871094 C 79.371094 58.964844 79.535156 59.058594 79.695312 59.152344 C 80.011719 59.335938 80.324219 59.515625 80.636719 59.699219 C 80.898438 59.851562 81.15625 60 81.421875 60.148438 C 81.710938 60.316406 82.003906 60.484375 82.292969 60.652344 C 82.609375 60.839844 82.925781 61.019531 83.242188 61.203125 C 83.40625 61.296875 83.566406 61.390625 83.730469 61.484375 C 83.796875 61.523438 83.859375 61.558594 83.925781 61.597656 C 86.851562 63.285156 86.851562 63.285156 89.773438 64.972656 C 89.808594 64.992188 89.839844 65.007812 89.871094 65.027344 C 89.9375 65.066406 90.003906 65.105469 90.066406 65.140625 C 90.230469 65.234375 90.394531 65.328125 90.558594 65.421875 C 90.882812 65.613281 91.207031 65.800781 91.535156 65.988281 C 91.5625 66.003906 91.59375 66.023438 91.621094 66.039062 C 91.648438 66.054688 91.679688 66.074219 91.707031 66.089844 C 91.730469 66.101562 91.753906 66.117188 91.777344 66.132812 C 91.804688 66.148438 91.832031 66.164062 91.859375 66.179688 C 91.878906 66.1875 91.898438 66.191406 91.917969 66.199219 C 92 66.234375 92.042969 66.261719 92.101562 66.328125 C 92.136719 66.492188 92.132812 66.65625 92.128906 66.824219 C 92.128906 66.878906 92.128906 66.929688 92.128906 66.980469 C 92.128906 67.125 92.128906 67.265625 92.128906 67.410156 C 92.125 67.5625 92.128906 67.71875 92.128906 67.871094 C 92.128906 68.140625 92.125 68.40625 92.125 68.671875 C 92.125 69.058594 92.121094 69.445312 92.121094 69.832031 C 92.121094 70.457031 92.121094 71.085938 92.117188 71.710938 C 92.117188 72.320312 92.113281 72.929688 92.113281 73.539062 C 92.113281 73.59375 92.113281 73.59375 92.113281 73.652344 C 92.113281 73.839844 92.113281 74.027344 92.113281 74.214844 C 92.109375 75.777344 92.105469 77.339844 92.101562 78.898438 C 92.078125 78.910156 92.058594 78.921875 92.035156 78.933594 C 91.941406 78.988281 91.84375 79.042969 91.746094 79.097656 C 91.714844 79.117188 91.683594 79.132812 91.648438 79.152344 C 91.429688 79.277344 91.210938 79.402344 90.992188 79.527344 C 90.957031 79.546875 90.925781 79.566406 90.890625 79.585938 C 90.867188 79.601562 90.839844 79.617188 90.8125 79.632812 C 90.625 79.742188 90.433594 79.855469 90.242188 79.964844 C 90.210938 79.980469 90.179688 80 90.144531 80.019531 C 90.078125 80.058594 90.015625 80.09375 89.949219 80.132812 C 89.785156 80.226562 89.621094 80.320312 89.460938 80.414062 C 89.394531 80.453125 89.328125 80.488281 89.265625 80.527344 C 89.234375 80.546875 89.199219 80.566406 89.167969 80.582031 C 88.875 80.753906 88.875 80.753906 88.777344 80.808594 C 88.710938 80.847656 88.648438 80.882812 88.582031 80.921875 C 88.417969 81.015625 88.257812 81.109375 88.09375 81.203125 C 87.78125 81.382812 87.464844 81.566406 87.152344 81.75 C 86.875 81.910156 86.597656 82.070312 86.316406 82.230469 C 86.042969 82.386719 85.769531 82.542969 85.496094 82.703125 C 85.183594 82.886719 84.867188 83.070312 84.546875 83.253906 C 84.386719 83.347656 84.222656 83.441406 84.058594 83.535156 C 83.996094 83.574219 83.929688 83.609375 83.863281 83.648438 C 83.832031 83.667969 83.800781 83.683594 83.765625 83.703125 C 79.574219 86.121094 79.574219 86.121094 79.476562 86.179688 C 79.414062 86.214844 79.347656 86.253906 79.28125 86.292969 C 79.121094 86.386719 78.957031 86.480469 78.792969 86.574219 C 78.480469 86.753906 78.167969 86.933594 77.855469 87.117188 C 77.574219 87.28125 77.296875 87.441406 77.015625 87.601562 C 76.742188 87.757812 76.46875 87.914062 76.199219 88.074219 C 75.882812 88.257812 75.566406 88.441406 75.25 88.625 C 75.085938 88.71875 74.921875 88.8125 74.761719 88.90625 C 74.695312 88.941406 74.628906 88.980469 74.566406 89.015625 C 74.53125 89.035156 74.5 89.054688 74.46875 89.074219 C 67.933594 92.84375 67.933594 92.84375 67.835938 92.898438 C 67.773438 92.9375 67.707031 92.972656 67.644531 93.011719 C 67.480469 93.105469 67.316406 93.199219 67.152344 93.292969 C 66.839844 93.472656 66.527344 93.65625 66.214844 93.839844 C 65.9375 94 65.65625 94.160156 65.375 94.320312 C 65.132812 94.460938 64.890625 94.597656 64.648438 94.738281 C 64.390625 94.890625 64.128906 95.042969 63.871094 95.191406 C 63.578125 95.355469 63.289062 95.523438 62.996094 95.695312 C 62.78125 95.820312 62.5625 95.945312 62.34375 96.074219 C 62.3125 96.089844 62.28125 96.109375 62.246094 96.128906 C 62.113281 96.207031 61.980469 96.285156 61.84375 96.359375 C 61.773438 96.402344 61.703125 96.441406 61.632812 96.484375 C 61.566406 96.519531 61.5 96.558594 61.433594 96.597656 C 61.402344 96.613281 61.375 96.632812 61.34375 96.648438 C 61.3125 96.667969 61.285156 96.683594 61.253906 96.699219 C 61.199219 96.734375 61.140625 96.769531 61.085938 96.804688 C 61.046875 96.828125 61.046875 96.828125 61.007812 96.855469 C 60.984375 96.871094 60.964844 96.886719 60.941406 96.902344 C 60.84375 96.941406 60.789062 96.925781 60.691406 96.898438 C 60.613281 96.867188 60.613281 96.867188 60.539062 96.824219 C 60.511719 96.804688 60.484375 96.789062 60.453125 96.773438 C 60.425781 96.757812 60.394531 96.738281 60.367188 96.722656 C 60.335938 96.703125 60.304688 96.6875 60.273438 96.667969 C 60.179688 96.617188 60.089844 96.5625 60 96.511719 C 59.976562 96.496094 59.953125 96.480469 59.929688 96.46875 C 59.84375 96.417969 59.761719 96.371094 59.679688 96.320312 C 59.515625 96.222656 59.347656 96.128906 59.179688 96.03125 C 58.792969 95.8125 58.410156 95.589844 58.027344 95.367188 C 57.742188 95.199219 57.460938 95.039062 57.179688 94.875 C 56.945312 94.746094 56.71875 94.609375 56.488281 94.476562 C 56.269531 94.347656 56.046875 94.222656 55.828125 94.097656 C 55.628906 93.984375 55.429688 93.867188 55.234375 93.75 C 54.964844 93.59375 54.695312 93.441406 54.425781 93.289062 C 54.234375 93.183594 54.046875 93.074219 53.859375 92.960938 C 53.695312 92.863281 53.527344 92.765625 53.359375 92.671875 C 52.945312 92.4375 52.535156 92.199219 52.125 91.957031 C 51.609375 91.65625 51.09375 91.359375 50.574219 91.066406 C 50.34375 90.933594 50.117188 90.800781 49.886719 90.667969 C 49.695312 90.554688 49.5 90.441406 49.304688 90.328125 C 49.046875 90.183594 48.792969 90.035156 48.539062 89.886719 C 48.320312 89.757812 48.097656 89.632812 47.878906 89.507812 C 47.679688 89.394531 47.480469 89.277344 47.285156 89.160156 C 47.015625 89.003906 46.746094 88.851562 46.476562 88.699219 C 46.285156 88.589844 46.097656 88.484375 45.910156 88.371094 C 45.742188 88.273438 45.578125 88.175781 45.410156 88.082031 C 45.210938 87.96875 45.011719 87.855469 44.8125 87.742188 C 44.589844 87.609375 44.367188 87.480469 44.144531 87.351562 C 44.109375 87.332031 44.078125 87.316406 44.042969 87.292969 C 43.976562 87.257812 43.910156 87.21875 43.839844 87.179688 C 43.675781 87.082031 43.511719 86.988281 43.351562 86.894531 C 43.285156 86.859375 43.21875 86.820312 43.15625 86.78125 C 42.765625 86.558594 42.375 86.332031 41.984375 86.109375 C 41.953125 86.089844 41.921875 86.070312 41.886719 86.050781 C 41.824219 86.015625 41.757812 85.976562 41.691406 85.9375 C 41.53125 85.84375 41.367188 85.75 41.203125 85.65625 C 40.890625 85.476562 40.574219 85.292969 40.265625 85.113281 C 40.003906 84.960938 39.742188 84.808594 39.480469 84.660156 C 39.1875 84.492188 38.898438 84.324219 38.609375 84.15625 C 38.292969 83.972656 37.976562 83.789062 37.660156 83.605469 C 37.496094 83.511719 37.332031 83.417969 37.171875 83.324219 C 37.105469 83.289062 37.039062 83.25 36.976562 83.210938 C 31.125 79.835938 31.125 79.835938 31.027344 79.78125 C 30.960938 79.742188 30.898438 79.707031 30.832031 79.667969 C 30.683594 79.582031 30.53125 79.496094 30.378906 79.40625 C 30.328125 79.378906 30.273438 79.347656 30.222656 79.316406 C 30.15625 79.277344 30.089844 79.238281 30.019531 79.199219 C 29.976562 79.175781 29.976562 79.175781 29.929688 79.148438 C 29.890625 79.125 29.890625 79.125 29.851562 79.101562 C 29.730469 79.03125 29.609375 78.964844 29.488281 78.898438 C 29.488281 66.960938 29.488281 55.019531 29.488281 42.71875 C 29.90625 42.480469 29.90625 42.480469 30.328125 42.238281 C 30.558594 42.109375 30.785156 41.976562 31.011719 41.847656 C 31.175781 41.753906 31.335938 41.660156 31.5 41.566406 C 31.566406 41.527344 31.628906 41.488281 31.695312 41.453125 C 34.425781 39.878906 34.425781 39.878906 34.523438 39.820312 C 34.585938 39.785156 34.652344 39.746094 34.71875 39.707031 C 34.878906 39.613281 35.042969 39.519531 35.207031 39.425781 C 35.519531 39.246094 35.832031 39.066406 36.144531 38.882812 C 36.425781 38.71875 36.703125 38.558594 36.984375 38.398438 C 37.257812 38.242188 37.53125 38.085938 37.800781 37.925781 C 38.117188 37.742188 38.433594 37.558594 38.75 37.375 C 38.914062 37.28125 39.078125 37.1875 39.238281 37.09375 C 39.304688 37.058594 39.371094 37.019531 39.433594 36.984375 C 39.46875 36.964844 39.5 36.945312 39.53125 36.925781 C 44.503906 34.058594 44.503906 34.058594 44.601562 34 C 44.667969 33.964844 44.730469 33.925781 44.796875 33.890625 C 44.960938 33.792969 45.125 33.699219 45.289062 33.605469 C 45.601562 33.425781 45.914062 33.246094 46.226562 33.0625 C 46.503906 32.898438 46.785156 32.738281 47.0625 32.578125 C 47.335938 32.421875 47.609375 32.265625 47.882812 32.105469 C 48.199219 31.921875 48.515625 31.738281 48.832031 31.558594 C 48.996094 31.464844 49.15625 31.367188 49.320312 31.273438 C 49.386719 31.238281 49.449219 31.199219 49.515625 31.164062 C 49.546875 31.144531 49.578125 31.125 49.613281 31.105469 C 55.363281 27.789062 55.363281 27.789062 55.460938 27.730469 C 55.527344 27.695312 55.59375 27.65625 55.65625 27.617188 C 55.820312 27.523438 55.984375 27.429688 56.148438 27.335938 C 56.460938 27.15625 56.773438 26.972656 57.085938 26.792969 C 57.363281 26.628906 57.644531 26.46875 57.921875 26.308594 C 58.199219 26.152344 58.46875 25.996094 58.742188 25.835938 C 59.058594 25.652344 59.371094 25.46875 59.6875 25.289062 C 59.792969 25.226562 59.898438 25.167969 60.003906 25.105469 C 60.023438 25.09375 60.039062 25.085938 60.058594 25.074219 C 60.144531 25.027344 60.230469 24.976562 60.3125 24.925781 C 60.375 24.894531 60.433594 24.859375 60.492188 24.824219 C 60.539062 24.796875 60.585938 24.769531 60.632812 24.738281 C 60.761719 24.65625 60.761719 24.65625 60.851562 24.683594 Z M 60.851562 24.683594 "/>
<path style=" stroke:none;fill-rule:nonzero;fill:rgb(99.607843%,99.607843%,99.607843%);fill-opacity:1;" d="M 60.871094 34.351562 C 60.914062 34.371094 60.953125 34.390625 60.996094 34.414062 C 61.019531 34.429688 61.042969 34.441406 61.066406 34.453125 C 61.09375 34.46875 61.121094 34.484375 61.144531 34.5 C 61.1875 34.519531 61.1875 34.519531 61.226562 34.542969 C 61.414062 34.648438 61.601562 34.753906 61.785156 34.863281 C 61.949219 34.960938 62.117188 35.058594 62.28125 35.152344 C 62.511719 35.285156 62.742188 35.417969 62.96875 35.550781 C 63.195312 35.679688 63.417969 35.8125 63.644531 35.941406 C 63.867188 36.066406 64.089844 36.195312 64.3125 36.324219 C 64.660156 36.527344 65.011719 36.730469 65.363281 36.933594 C 65.523438 37.027344 65.6875 37.121094 65.851562 37.214844 C 65.914062 37.253906 65.980469 37.289062 66.042969 37.328125 C 66.175781 37.402344 66.308594 37.480469 66.441406 37.554688 C 66.738281 37.726562 67.039062 37.902344 67.339844 38.070312 C 67.589844 38.214844 67.839844 38.359375 68.089844 38.507812 C 68.410156 38.695312 68.730469 38.878906 69.050781 39.0625 C 69.152344 39.121094 69.25 39.179688 69.351562 39.234375 C 69.648438 39.410156 69.949219 39.582031 70.25 39.75 C 70.5 39.894531 70.75 40.042969 71 40.1875 C 71.320312 40.375 71.640625 40.558594 71.960938 40.742188 C 72.0625 40.800781 72.160156 40.859375 72.261719 40.914062 C 72.558594 41.089844 72.859375 41.261719 73.160156 41.433594 C 73.410156 41.574219 73.660156 41.722656 73.910156 41.867188 C 74.230469 42.054688 74.550781 42.238281 74.871094 42.421875 C 74.972656 42.480469 75.070312 42.539062 75.171875 42.597656 C 75.46875 42.769531 75.769531 42.941406 76.070312 43.113281 C 76.761719 43.507812 76.761719 43.507812 76.996094 43.652344 C 77.074219 43.695312 77.144531 43.730469 77.226562 43.761719 C 77.566406 43.910156 77.566406 43.910156 77.640625 44.078125 C 77.6875 44.28125 77.675781 44.488281 77.667969 44.695312 C 77.667969 44.765625 77.667969 44.832031 77.667969 44.902344 C 77.667969 45.09375 77.664062 45.28125 77.660156 45.46875 C 77.660156 45.667969 77.660156 45.867188 77.65625 46.0625 C 77.65625 46.394531 77.652344 46.726562 77.648438 47.058594 C 77.644531 47.398438 77.640625 47.738281 77.636719 48.082031 C 77.636719 48.101562 77.636719 48.125 77.636719 48.144531 C 77.636719 48.25 77.636719 48.355469 77.636719 48.460938 C 77.628906 49.339844 77.621094 50.214844 77.609375 51.089844 C 77.488281 51.050781 77.378906 51.007812 77.269531 50.941406 C 77.238281 50.921875 77.207031 50.90625 77.175781 50.886719 C 77.144531 50.867188 77.109375 50.847656 77.078125 50.828125 C 77.042969 50.808594 77.007812 50.789062 76.972656 50.769531 C 76.902344 50.726562 76.828125 50.683594 76.757812 50.640625 C 76.59375 50.546875 76.425781 50.449219 76.261719 50.355469 C 76.195312 50.316406 76.128906 50.28125 76.066406 50.242188 C 75.933594 50.167969 75.804688 50.089844 75.671875 50.015625 C 75.359375 49.835938 75.046875 49.65625 74.734375 49.472656 C 74.472656 49.320312 74.210938 49.167969 73.949219 49.019531 C 73.660156 48.855469 73.367188 48.6875 73.078125 48.515625 C 72.761719 48.332031 72.445312 48.148438 72.128906 47.964844 C 71.964844 47.871094 71.804688 47.777344 71.640625 47.683594 C 71.574219 47.648438 71.511719 47.609375 71.445312 47.574219 C 69.753906 46.597656 68.066406 45.621094 66.375 44.648438 C 66.34375 44.628906 66.3125 44.609375 66.277344 44.589844 C 66.210938 44.554688 66.148438 44.515625 66.082031 44.480469 C 65.917969 44.382812 65.757812 44.289062 65.59375 44.195312 C 65.28125 44.015625 64.964844 43.835938 64.652344 43.652344 C 64.394531 43.5 64.132812 43.347656 63.871094 43.199219 C 63.578125 43.035156 63.289062 42.867188 62.996094 42.695312 C 62.78125 42.570312 62.5625 42.441406 62.34375 42.316406 C 62.3125 42.296875 62.28125 42.28125 62.246094 42.261719 C 62.113281 42.183594 61.980469 42.105469 61.84375 42.027344 C 61.773438 41.988281 61.703125 41.949219 61.632812 41.90625 C 61.566406 41.867188 61.5 41.832031 61.433594 41.792969 C 61.402344 41.777344 61.375 41.757812 61.34375 41.738281 C 61.300781 41.714844 61.300781 41.714844 61.253906 41.691406 C 61.199219 41.65625 61.140625 41.621094 61.085938 41.585938 C 61.046875 41.5625 61.046875 41.5625 61.007812 41.535156 C 60.984375 41.519531 60.964844 41.503906 60.941406 41.488281 C 60.84375 41.449219 60.789062 41.464844 60.691406 41.488281 C 60.613281 41.523438 60.613281 41.523438 60.539062 41.566406 C 60.511719 41.582031 60.484375 41.597656 60.453125 41.617188 C 60.425781 41.632812 60.394531 41.652344 60.367188 41.667969 C 60.335938 41.6875 60.304688 41.703125 60.273438 41.722656 C 60.179688 41.773438 60.089844 41.828125 60 41.878906 C 59.976562 41.894531 59.953125 41.90625 59.929688 41.921875 C 59.84375 41.96875 59.761719 42.019531 59.679688 42.066406 C 59.515625 42.164062 59.351562 42.257812 59.1875 42.351562 C 58.957031 42.484375 58.730469 42.617188 58.5 42.75 C 58.25 42.894531 58 43.039062 57.746094 43.183594 C 57.546875 43.296875 57.347656 43.414062 57.148438 43.53125 C 56.898438 43.675781 56.648438 43.820312 56.398438 43.964844 C 56.199219 44.078125 56 44.195312 55.800781 44.308594 C 55.550781 44.457031 55.300781 44.601562 55.046875 44.742188 C 54.847656 44.855469 54.652344 44.972656 54.453125 45.089844 C 54.183594 45.246094 53.914062 45.398438 53.644531 45.550781 C 53.457031 45.660156 53.265625 45.765625 53.078125 45.878906 C 52.917969 45.972656 52.753906 46.066406 52.59375 46.160156 C 52.21875 46.371094 51.851562 46.585938 51.480469 46.800781 C 51.453125 46.816406 51.429688 46.828125 51.402344 46.84375 C 51.148438 46.992188 50.898438 47.136719 50.644531 47.285156 C 50.363281 47.449219 50.082031 47.613281 49.796875 47.773438 C 49.597656 47.886719 49.398438 48.003906 49.199219 48.121094 C 48.949219 48.265625 48.699219 48.410156 48.449219 48.554688 C 48.25 48.667969 48.050781 48.78125 47.855469 48.898438 C 47.585938 49.054688 47.316406 49.210938 47.042969 49.363281 C 46.855469 49.46875 46.667969 49.578125 46.480469 49.6875 C 46.3125 49.785156 46.148438 49.882812 45.980469 49.976562 C 45.777344 50.09375 45.578125 50.207031 45.378906 50.320312 C 45.359375 50.335938 45.335938 50.347656 45.3125 50.359375 C 45.175781 50.441406 45.042969 50.519531 44.90625 50.597656 C 44.875 50.617188 44.84375 50.632812 44.808594 50.652344 C 44.75 50.691406 44.6875 50.726562 44.625 50.761719 C 44.597656 50.777344 44.570312 50.796875 44.539062 50.8125 C 44.515625 50.828125 44.488281 50.839844 44.464844 50.855469 C 44.324219 50.9375 44.183594 51.011719 44.039062 51.089844 C 44.03125 57.503906 44.019531 63.921875 44.011719 70.53125 C 44.058594 70.550781 44.109375 70.570312 44.160156 70.589844 C 44.214844 70.617188 44.269531 70.648438 44.320312 70.675781 C 44.351562 70.695312 44.382812 70.710938 44.414062 70.730469 C 44.445312 70.746094 44.480469 70.765625 44.511719 70.785156 C 44.5625 70.8125 44.5625 70.8125 44.613281 70.84375 C 44.820312 70.957031 45.019531 71.074219 45.222656 71.191406 C 45.652344 71.449219 46.085938 71.695312 46.519531 71.941406 C 46.769531 72.085938 47.019531 72.230469 47.269531 72.378906 C 47.589844 72.5625 47.910156 72.75 48.230469 72.933594 C 48.332031 72.992188 48.429688 73.046875 48.53125 73.105469 C 48.828125 73.277344 49.128906 73.449219 49.429688 73.621094 C 49.679688 73.765625 49.929688 73.910156 50.179688 74.058594 C 50.5 74.242188 50.820312 74.429688 51.140625 74.613281 C 51.242188 74.671875 51.339844 74.726562 51.441406 74.785156 C 51.738281 74.957031 52.039062 75.132812 52.339844 75.300781 C 52.589844 75.445312 52.839844 75.589844 53.089844 75.738281 C 53.410156 75.925781 53.730469 76.109375 54.050781 76.292969 C 54.214844 76.386719 54.378906 76.480469 54.539062 76.574219 C 54.605469 76.613281 54.671875 76.648438 54.734375 76.6875 C 56.488281 77.699219 56.488281 77.699219 58.246094 78.710938 C 58.277344 78.730469 58.308594 78.75 58.34375 78.769531 C 58.40625 78.804688 58.472656 78.84375 58.539062 78.882812 C 58.699219 78.976562 58.863281 79.070312 59.027344 79.164062 C 59.316406 79.332031 59.609375 79.5 59.898438 79.667969 C 59.960938 79.703125 60.023438 79.738281 60.082031 79.777344 C 60.210938 79.851562 60.335938 79.925781 60.464844 80 C 60.480469 80.011719 60.5 80.023438 60.523438 80.035156 C 60.570312 80.066406 60.621094 80.09375 60.667969 80.125 C 60.765625 80.167969 60.800781 80.15625 60.898438 80.128906 C 60.972656 80.097656 60.972656 80.097656 61.046875 80.054688 C 61.085938 80.03125 61.085938 80.03125 61.128906 80.003906 C 61.160156 79.988281 61.1875 79.972656 61.21875 79.953125 C 61.265625 79.925781 61.265625 79.925781 61.3125 79.898438 C 61.40625 79.847656 61.496094 79.792969 61.589844 79.738281 C 61.640625 79.710938 61.6875 79.683594 61.738281 79.65625 C 62.023438 79.488281 62.3125 79.320312 62.597656 79.152344 C 62.917969 78.96875 63.238281 78.78125 63.5625 78.597656 C 63.722656 78.503906 63.886719 78.410156 64.050781 78.316406 C 64.113281 78.277344 64.179688 78.238281 64.246094 78.203125 C 64.375 78.125 64.507812 78.050781 64.640625 77.972656 C 64.9375 77.800781 65.238281 77.628906 65.539062 77.457031 C 65.789062 77.316406 66.042969 77.167969 66.292969 77.023438 C 66.609375 76.835938 66.929688 76.652344 67.25 76.46875 C 67.351562 76.410156 67.449219 76.351562 67.550781 76.292969 C 67.847656 76.121094 68.148438 75.949219 68.449219 75.777344 C 68.699219 75.632812 68.949219 75.488281 69.203125 75.34375 C 69.519531 75.15625 69.839844 74.972656 70.160156 74.789062 C 70.261719 74.730469 70.359375 74.671875 70.460938 74.613281 C 70.757812 74.441406 71.058594 74.269531 71.359375 74.097656 C 71.609375 73.953125 71.859375 73.808594 72.113281 73.664062 C 72.429688 73.476562 72.75 73.292969 73.070312 73.105469 C 73.171875 73.050781 73.269531 72.992188 73.371094 72.933594 C 73.667969 72.761719 73.96875 72.589844 74.269531 72.417969 C 74.519531 72.273438 74.769531 72.128906 75.019531 71.984375 C 75.40625 71.757812 75.792969 71.535156 76.179688 71.3125 C 76.277344 71.257812 76.375 71.199219 76.472656 71.144531 C 76.5 71.125 76.53125 71.109375 76.558594 71.09375 C 76.621094 71.058594 76.679688 71.023438 76.742188 70.984375 C 76.835938 70.925781 76.933594 70.894531 77.042969 70.863281 C 77.253906 70.789062 77.464844 70.703125 77.578125 70.5 C 77.722656 70.078125 77.660156 69.574219 77.644531 69.136719 C 77.636719 68.964844 77.636719 68.792969 77.632812 68.625 C 77.628906 68.289062 77.621094 67.953125 77.609375 67.621094 C 77.667969 67.648438 77.722656 67.675781 77.78125 67.703125 C 77.8125 67.71875 77.84375 67.734375 77.875 67.75 C 78.019531 67.828125 78.164062 67.910156 78.304688 67.992188 C 78.367188 68.03125 78.429688 68.066406 78.492188 68.105469 C 78.542969 68.132812 78.542969 68.132812 78.589844 68.164062 C 78.753906 68.257812 78.914062 68.351562 79.078125 68.441406 C 79.109375 68.460938 79.140625 68.480469 79.175781 68.5 C 79.238281 68.539062 79.304688 68.574219 79.371094 68.613281 C 79.535156 68.707031 79.695312 68.800781 79.859375 68.894531 C 79.925781 68.933594 79.988281 68.96875 80.054688 69.007812 C 80.183594 69.082031 80.316406 69.15625 80.445312 69.234375 C 80.476562 69.25 80.507812 69.269531 80.542969 69.289062 C 80.609375 69.328125 80.671875 69.363281 80.738281 69.402344 C 80.902344 69.496094 81.0625 69.589844 81.226562 69.683594 C 81.539062 69.863281 81.855469 70.046875 82.167969 70.226562 C 82.472656 70.410156 82.785156 70.585938 83.09375 70.761719 C 83.128906 70.78125 83.164062 70.800781 83.195312 70.820312 C 83.226562 70.839844 83.257812 70.855469 83.289062 70.871094 C 83.316406 70.886719 83.34375 70.902344 83.371094 70.921875 C 83.394531 70.929688 83.421875 70.941406 83.449219 70.953125 C 83.519531 71.011719 83.519531 71.011719 83.542969 71.101562 C 83.546875 71.140625 83.550781 71.175781 83.554688 71.214844 C 83.554688 71.246094 83.554688 71.246094 83.558594 71.28125 C 83.5625 71.347656 83.570312 71.417969 83.574219 71.488281 C 83.578125 71.535156 83.582031 71.585938 83.585938 71.632812 C 83.59375 71.761719 83.601562 71.890625 83.613281 72.015625 C 83.621094 72.144531 83.632812 72.273438 83.640625 72.402344 C 83.671875 72.804688 83.699219 73.203125 83.722656 73.605469 C 83.726562 73.675781 83.734375 73.746094 83.742188 73.816406 C 83.75 73.910156 83.753906 73.980469 83.730469 74.070312 C 83.640625 74.167969 83.535156 74.21875 83.417969 74.273438 C 83.351562 74.308594 83.285156 74.34375 83.21875 74.382812 C 83.183594 74.398438 83.148438 74.417969 83.113281 74.433594 C 82.949219 74.523438 82.785156 74.617188 82.625 74.714844 C 82.558594 74.75 82.492188 74.789062 82.425781 74.828125 C 82.230469 74.9375 82.035156 75.050781 81.839844 75.164062 C 81.773438 75.203125 81.710938 75.238281 81.644531 75.277344 C 81.613281 75.296875 81.582031 75.316406 81.546875 75.332031 C 76.574219 78.203125 76.574219 78.203125 76.476562 78.257812 C 76.414062 78.296875 76.347656 78.332031 76.28125 78.371094 C 76.121094 78.464844 75.957031 78.558594 75.792969 78.652344 C 75.480469 78.835938 75.167969 79.015625 74.855469 79.199219 C 74.574219 79.359375 74.296875 79.519531 74.015625 79.679688 C 73.742188 79.835938 73.46875 79.996094 73.199219 80.152344 C 72.882812 80.339844 72.566406 80.519531 72.25 80.703125 C 72.085938 80.796875 71.921875 80.890625 71.761719 80.984375 C 71.695312 81.023438 71.628906 81.058594 71.566406 81.097656 C 71.53125 81.117188 71.5 81.132812 71.46875 81.152344 C 65.714844 84.472656 65.714844 84.472656 65.617188 84.527344 C 65.550781 84.566406 65.488281 84.605469 65.421875 84.640625 C 65.257812 84.734375 65.097656 84.828125 64.933594 84.921875 C 64.621094 85.105469 64.304688 85.285156 63.992188 85.46875 C 63.714844 85.628906 63.4375 85.792969 63.15625 85.949219 C 62.882812 86.105469 62.609375 86.265625 62.339844 86.421875 C 62.082031 86.574219 61.824219 86.722656 61.566406 86.871094 C 61.421875 86.953125 61.28125 87.035156 61.144531 87.125 C 61.125 87.136719 61.101562 87.152344 61.078125 87.164062 C 61.042969 87.1875 61.003906 87.214844 60.96875 87.238281 C 60.917969 87.269531 60.917969 87.269531 60.808594 87.300781 C 60.699219 87.265625 60.609375 87.210938 60.511719 87.148438 C 60.484375 87.132812 60.457031 87.121094 60.429688 87.105469 C 60.34375 87.054688 60.257812 87.003906 60.171875 86.953125 C 60.105469 86.914062 60.042969 86.878906 59.980469 86.839844 C 59.929688 86.8125 59.929688 86.8125 59.882812 86.785156 C 59.746094 86.703125 59.609375 86.628906 59.476562 86.550781 C 59.25 86.421875 59.027344 86.292969 58.804688 86.160156 C 58.535156 86.003906 58.265625 85.851562 57.996094 85.699219 C 57.804688 85.589844 57.617188 85.484375 57.429688 85.371094 C 57.265625 85.273438 57.097656 85.175781 56.929688 85.082031 C 56.542969 84.863281 56.160156 84.640625 55.777344 84.414062 C 55.492188 84.25 55.210938 84.085938 54.929688 83.925781 C 54.695312 83.792969 54.46875 83.660156 54.238281 83.527344 C 54.019531 83.398438 53.796875 83.273438 53.578125 83.144531 C 53.378906 83.03125 53.179688 82.917969 52.984375 82.800781 C 52.714844 82.644531 52.445312 82.492188 52.175781 82.339844 C 51.984375 82.230469 51.796875 82.121094 51.609375 82.011719 C 51.449219 81.917969 51.285156 81.824219 51.121094 81.730469 C 50.785156 81.535156 50.445312 81.34375 50.109375 81.148438 C 50.011719 81.089844 49.910156 81.035156 49.8125 80.976562 C 49.5 80.796875 49.1875 80.613281 48.875 80.433594 C 48.613281 80.28125 48.351562 80.128906 48.089844 79.980469 C 47.796875 79.8125 47.507812 79.644531 47.21875 79.476562 C 46.902344 79.292969 46.585938 79.109375 46.269531 78.925781 C 46.105469 78.832031 45.941406 78.738281 45.78125 78.644531 C 45.714844 78.609375 45.648438 78.570312 45.585938 78.53125 C 43.636719 77.40625 41.683594 76.28125 39.734375 75.15625 C 39.703125 75.140625 39.671875 75.121094 39.636719 75.101562 C 39.574219 75.0625 39.507812 75.027344 39.441406 74.988281 C 39.277344 74.894531 39.113281 74.796875 38.945312 74.703125 C 38.910156 74.683594 38.878906 74.664062 38.84375 74.644531 C 38.78125 74.605469 38.714844 74.570312 38.652344 74.535156 C 38.59375 74.5 38.535156 74.464844 38.476562 74.429688 C 38.402344 74.382812 38.328125 74.355469 38.242188 74.328125 C 38.085938 74.273438 37.957031 74.207031 37.859375 74.070312 C 37.761719 73.765625 37.789062 73.421875 37.792969 73.109375 C 37.796875 72.972656 37.792969 72.835938 37.792969 72.699219 C 37.792969 72.460938 37.792969 72.222656 37.792969 71.984375 C 37.796875 71.632812 37.792969 71.277344 37.792969 70.921875 C 37.789062 70.289062 37.789062 69.65625 37.792969 69.023438 C 37.792969 68.472656 37.792969 67.917969 37.792969 67.363281 C 37.792969 67.328125 37.792969 67.289062 37.792969 67.253906 C 37.792969 67.105469 37.792969 66.953125 37.792969 66.804688 C 37.792969 65.40625 37.792969 64.011719 37.796875 62.613281 C 37.800781 61.371094 37.800781 60.125 37.796875 58.882812 C 37.796875 57.488281 37.796875 56.09375 37.796875 54.699219 C 37.796875 54.550781 37.796875 54.402344 37.796875 54.25 C 37.796875 54.214844 37.796875 54.179688 37.796875 54.140625 C 37.796875 53.585938 37.796875 53.035156 37.796875 52.480469 C 37.796875 51.851562 37.796875 51.222656 37.800781 50.59375 C 37.800781 50.242188 37.800781 49.890625 37.800781 49.535156 C 37.796875 49.300781 37.800781 49.066406 37.800781 48.832031 C 37.800781 48.699219 37.800781 48.5625 37.800781 48.429688 C 37.792969 47.652344 37.792969 47.652344 37.902344 47.480469 C 38.023438 47.367188 38.152344 47.324219 38.308594 47.28125 C 38.375 47.246094 38.4375 47.210938 38.496094 47.171875 C 38.558594 47.136719 38.617188 47.101562 38.679688 47.066406 C 38.746094 47.027344 38.816406 46.988281 38.882812 46.949219 C 38.917969 46.929688 38.953125 46.910156 38.988281 46.890625 C 39.152344 46.792969 39.316406 46.699219 39.480469 46.605469 C 39.546875 46.566406 39.609375 46.53125 39.675781 46.492188 C 39.707031 46.472656 39.738281 46.457031 39.773438 46.4375 C 47.085938 42.21875 47.085938 42.21875 47.183594 42.160156 C 47.246094 42.125 47.3125 42.085938 47.378906 42.046875 C 47.539062 41.953125 47.703125 41.859375 47.867188 41.765625 C 48.179688 41.585938 48.492188 41.40625 48.804688 41.222656 C 49.085938 41.058594 49.363281 40.898438 49.644531 40.738281 C 49.886719 40.601562 50.128906 40.460938 50.371094 40.320312 C 50.628906 40.167969 50.890625 40.019531 51.148438 39.871094 C 51.441406 39.703125 51.730469 39.535156 52.023438 39.367188 C 52.335938 39.183594 52.65625 39 52.972656 38.816406 C 53.132812 38.722656 53.296875 38.628906 53.460938 38.535156 C 53.523438 38.496094 53.589844 38.460938 53.65625 38.421875 C 53.6875 38.402344 53.71875 38.386719 53.753906 38.367188 C 58.726562 35.496094 58.726562 35.496094 58.824219 35.441406 C 58.886719 35.402344 58.953125 35.367188 59.015625 35.328125 C 59.179688 35.234375 59.34375 35.140625 59.507812 35.046875 C 59.542969 35.027344 59.574219 35.007812 59.609375 34.988281 C 59.675781 34.949219 59.738281 34.914062 59.804688 34.875 C 59.964844 34.785156 60.125 34.691406 60.28125 34.59375 C 60.3125 34.574219 60.34375 34.558594 60.375 34.539062 C 60.429688 34.503906 60.488281 34.46875 60.542969 34.433594 C 60.570312 34.417969 60.59375 34.402344 60.621094 34.386719 C 60.65625 34.367188 60.65625 34.367188 60.6875 34.34375 C 60.765625 34.3125 60.792969 34.320312 60.871094 34.351562 Z M 60.871094 34.351562 "/>
</g>
</svg>
