<?xml version="1.0" encoding="UTF-8"?>
<svg xmlns="http://www.w3.org/2000/svg" xmlns:xlink="http://www.w3.org/1999/xlink" width="150px" height="118px" viewBox="0 0 150 118" version="1.1">
<g id="surface1">
<path style=" stroke:none;fill-rule:nonzero;fill:rgb(12.54902%,78.823531%,59.215689%);fill-opacity:1;" d="M 38.785156 6.375 L 110.234375 6.375 C 120.40625 6.375 128.648438 14.644531 128.648438 24.839844 L 128.648438 93.332031 C 128.648438 103.53125 120.40625 111.796875 110.234375 111.796875 L 38.785156 111.796875 C 28.613281 111.796875 20.367188 103.53125 20.367188 93.332031 L 20.367188 24.839844 C 20.367188 14.644531 28.613281 6.375 38.785156 6.375 Z M 38.785156 6.375 "/>
<path style=" stroke:none;fill-rule:evenodd;fill:rgb(100%,100%,100%);fill-opacity:1;" d="M 74.335938 25.292969 L 94.234375 36.558594 L 94.234375 28.324219 L 74.335938 17.058594 L 37.269531 38.046875 L 37.269531 80.027344 L 74.335938 101.011719 C 86.269531 94.257812 98.199219 87.5 110.132812 80.734375 L 111.390625 80.015625 L 111.390625 70.398438 L 104.121094 68.390625 L 104.121094 75.894531 L 74.324219 92.769531 L 44.53125 75.894531 L 44.53125 42.167969 L 74.324219 25.292969 Z M 74.335938 25.292969 "/>
<path style=" stroke:none;fill-rule:evenodd;fill:rgb(100%,100%,100%);fill-opacity:1;" d="M 94.234375 47.773438 L 94.234375 39.542969 L 74.335938 28.273438 L 47.167969 43.652344 L 47.167969 74.417969 L 74.335938 89.808594 L 101.503906 74.417969 L 101.226562 70.902344 L 94.242188 66.945312 L 94.242188 70.308594 L 74.34375 81.574219 L 54.449219 70.308594 L 54.449219 47.765625 L 74.34375 36.496094 L 94.242188 47.765625 Z M 94.234375 47.773438 "/>
<path style=" stroke:none;fill-rule:evenodd;fill:rgb(100%,100%,100%);fill-opacity:1;" d="M 74.335938 44.484375 L 74.335938 52.707031 L 111.390625 73.703125 L 111.390625 65.46875 Z M 74.335938 44.484375 "/>
</g>
</svg>
