<?xml version="1.0" encoding="utf-8"?>
<!-- Generator: Adobe Illustrator 27.0.0, SVG Export Plug-In . SVG Version: 6.00 Build 0)  -->
<svg version="1.1" id="Layer_1" xmlns="http://www.w3.org/2000/svg" xmlns:xlink="http://www.w3.org/1999/xlink" x="0px" y="0px"
	 viewBox="0 0 1059 1028.3" style="enable-background:new 0 0 1059 1028.3;" xml:space="preserve">
<style type="text/css">
	.st0{display:none;fill-rule:evenodd;clip-rule:evenodd;}
	.st1{display:none;fill:url(#SVGID_1_);}
	.st2{fill:url(#SVGID_00000127750329845026303650000005824404337999652748_);}
	.st3{fill-rule:evenodd;clip-rule:evenodd;fill:#FFFFFF;}
	.st4{fill:#2563EB;}
	.st5{fill:#F97316;}
	.st6{fill:url(#SVGID_00000128479335160376108060000000013089735709408943_);}
	.st7{fill:url(#SVGID_00000124138926944907192840000006274316828387386303_);}
	.st8{fill:#FFFFFF;stroke:#FFFFFF;stroke-width:16;stroke-miterlimit:10;}
	.st9{fill:url(#SVGID_00000039101378281932623500000009921665921162141374_);}
	.st10{fill:url(#SVGID_00000096739588242312630610000013184081317016298151_);}
	.st11{fill:url(#SVGID_00000028310349302404367510000017607225573750908316_);}
	.st12{fill:url(#SVGID_00000025413142127730688840000010112126488410626445_);}
	.st13{fill:url(#SVGID_00000041982666622937223720000006465898246701146543_);}
	.st14{fill:url(#SVGID_00000053547168082349751160000008640784777155701637_);}
	.st15{fill:url(#SVGID_00000117670994858589488250000003320168957039609515_);}
	.st16{fill:#FFFFFF;}
</style>
<linearGradient id="SVGID_1_" gradientUnits="userSpaceOnUse" x1="0" y1="514.1652" x2="1059.031" y2="514.1652">
	<stop  offset="0" style="stop-color:#9DE359"/>
	<stop  offset="1" style="stop-color:#00D9A7"/>
</linearGradient>
<path style="fill:url(#SVGID_1_);" d="M878.9,1028.3H180.1C80.6,1028.3,0,947.7,0,848.2V180.1C0,80.6,80.6,0,180.1,0h698.8
	C978.4,0,1059,80.6,1059,180.1v668.1C1059,947.7,978.4,1028.3,878.9,1028.3z"/>
<g id="XMLID_28705_">
	<path id="XMLID_28742_" class="st16" d="M887.2,487h-219V295c0-6.9-5.6-12.6-12.6-12.6H420.6c-6.9,0-12.6,5.6-12.6,12.6v83.3H188.9
		c-6.9,0-12.6,5.6-12.6,12.6v383.4c0,6.9,5.6,12.6,12.6,12.6h231.7h235h0.2h231.5c6.9,0,12.6-5.6,12.6-12.6V499.5
		C899.8,492.6,894.2,487,887.2,487z M750.5,657.5h41.9v109.3h-41.9V657.5z M874.7,761.8h-67.3V649.9c0-4.2-3.4-7.5-7.5-7.5h-56.9
		c-4.2,0-7.5,3.4-7.5,7.5v111.9h-67.3V512.1h206.6V761.8z M201.4,403.5H408v358.3h-67.3V649.9c0-4.2-3.4-7.5-7.5-7.5h-56.9
		c-4.2,0-7.5,3.4-7.5,7.5v111.9h-67.3V403.5z M283.8,657.5h41.9v109.3h-41.9V657.5z M643,499.5v262.3h-72.2V649.9
		c0-4.2-3.4-7.5-7.5-7.5h-56.9c-4.2,0-7.5,3.4-7.5,7.5v111.9h-65.7V390.9v-83.3h210V498C643.1,498.5,643,499,643,499.5z
		 M513.9,766.8V657.5h41.9v109.3H513.9z"/>
	<path id="XMLID_28739_" class="st16" d="M524.4,355.2h-56.3c-4.2,0-7.5,3.4-7.5,7.5V419c0,4.2,3.4,7.5,7.5,7.5h56.3
		c4.2,0,7.5-3.4,7.5-7.5v-56.3C532,358.6,528.6,355.2,524.4,355.2z M516.9,411.5h-41.2v-41.2h41.2V411.5z"/>
	<path id="XMLID_28736_" class="st16" d="M609.8,355.2h-56.3c-4.2,0-7.5,3.4-7.5,7.5V419c0,4.2,3.4,7.5,7.5,7.5h56.3
		c4.2,0,7.5-3.4,7.5-7.5v-56.3C617.4,358.6,614,355.2,609.8,355.2z M602.3,411.5h-41.2v-41.2h41.2V411.5z"/>
	<path id="XMLID_28733_" class="st16" d="M524.4,447.3h-56.3c-4.2,0-7.5,3.4-7.5,7.5v56.3c0,4.2,3.4,7.5,7.5,7.5h56.3
		c4.2,0,7.5-3.4,7.5-7.5v-56.3C532,450.7,528.6,447.3,524.4,447.3z M516.9,503.6h-41.2v-41.2h41.2V503.6z"/>
	<path id="XMLID_28730_" class="st16" d="M609.8,447.3h-56.3c-4.2,0-7.5,3.4-7.5,7.5v56.3c0,4.2,3.4,7.5,7.5,7.5h56.3
		c4.2,0,7.5-3.4,7.5-7.5v-56.3C617.4,450.7,614,447.3,609.8,447.3z M602.3,503.6h-41.2v-41.2h41.2V503.6z"/>
	<path id="XMLID_28727_" class="st16" d="M524.4,539.5h-56.3c-4.2,0-7.5,3.4-7.5,7.5v56.3c0,4.2,3.4,7.5,7.5,7.5h56.3
		c4.2,0,7.5-3.4,7.5-7.5V547C532,542.8,528.6,539.5,524.4,539.5z M516.9,595.7h-41.2v-41.2h41.2V595.7z"/>
	<path id="XMLID_28724_" class="st16" d="M609.8,539.5h-56.3c-4.2,0-7.5,3.4-7.5,7.5v56.3c0,4.2,3.4,7.5,7.5,7.5h56.3
		c4.2,0,7.5-3.4,7.5-7.5V547C617.4,542.8,614,539.5,609.8,539.5z M602.3,595.7h-41.2v-41.2h41.2V595.7z"/>
	<path id="XMLID_28721_" class="st16" d="M233.9,518.7h56.2c4.2,0,7.5-3.4,7.5-7.5v-56.3c0-4.2-3.4-7.5-7.5-7.5h-56.2
		c-4.2,0-7.5,3.4-7.5,7.5v56.3C226.3,515.3,229.7,518.7,233.9,518.7z M241.4,462.4h41.2v41.2h-41.2V462.4z"/>
	<path id="XMLID_28718_" class="st16" d="M319.3,518.7h56.2c4.2,0,7.5-3.4,7.5-7.5v-56.3c0-4.2-3.4-7.5-7.5-7.5h-56.2
		c-4.2,0-7.5,3.4-7.5,7.5v56.3C311.8,515.3,315.1,518.7,319.3,518.7z M326.8,462.4H368v41.2h-41.2V462.4z"/>
	<path id="XMLID_28715_" class="st16" d="M290.1,610.8c4.2,0,7.5-3.4,7.5-7.5V547c0-4.2-3.4-7.5-7.5-7.5h-56.2
		c-4.2,0-7.5,3.4-7.5,7.5v56.3c0,4.2,3.4,7.5,7.5,7.5H290.1z M241.4,554.5h41.2v41.2h-41.2V554.5z"/>
	<path id="XMLID_28712_" class="st16" d="M319.3,610.8h56.2c4.2,0,7.5-3.4,7.5-7.5V547c0-4.2-3.4-7.5-7.5-7.5h-56.2
		c-4.2,0-7.5,3.4-7.5,7.5v56.3C311.8,607.4,315.1,610.8,319.3,610.8z M326.8,554.5H368v41.2h-41.2V554.5z"/>
	<path id="XMLID_28709_" class="st16" d="M700.6,610.8h56.3c4.2,0,7.5-3.4,7.5-7.5V547c0-4.2-3.4-7.5-7.5-7.5h-56.3
		c-4.2,0-7.5,3.4-7.5,7.5v56.3C693,607.4,696.4,610.8,700.6,610.8z M708.1,554.5h41.2v41.2h-41.2V554.5z"/>
	<path id="XMLID_28706_" class="st16" d="M786,610.8h56.3c4.2,0,7.5-3.4,7.5-7.5V547c0-4.2-3.4-7.5-7.5-7.5H786
		c-4.2,0-7.5,3.4-7.5,7.5v56.3C778.4,607.4,781.8,610.8,786,610.8z M793.5,554.5h41.2v41.2h-41.2V554.5z"/>
</g>
</svg>
